<svg xmlns="http://www.w3.org/2000/svg" version="1.1" xmlns:xlink="http://www.w3.org/1999/xlink" xmlns:svgjs="http://svgjs.dev/svgjs" width="1500" height="1500" viewBox="0 0 1500 1500"><rect width="1500" height="1500" fill="#000000"></rect><g transform="matrix(0.6666666666666666,0,0,0.6666666666666666,249.1839157421228,316.60645161290324)"><svg viewBox="0 0 287 248" data-background-color="#ffffff" preserveAspectRatio="xMidYMid meet" height="1296" width="1500" xmlns="http://www.w3.org/2000/svg" xmlns:xlink="http://www.w3.org/1999/xlink"><g id="tight-bounds" transform="matrix(1,0,0,1,0.2342161820107549,0.4000000000000057)"><svg viewBox="0 0 286.5315676359785 247.2" height="247.2" width="286.5315676359785"><g><svg viewBox="0 0 395.52 341.22782633226035" height="247.2" width="286.5315676359785"><g transform="matrix(1,0,0,1,0,250.2310955210835)"><svg viewBox="0 0 395.52 90.99673081117687" height="90.99673081117687" width="395.52"><g id="textblocktransform"><svg viewBox="0 0 395.52 90.99673081117687" height="90.99673081117687" width="395.52" id="textblock"><g><svg viewBox="0 0 395.52 55.67163094805667" height="55.67163094805667" width="395.52"><g transform="matrix(1,0,0,1,0,0)"><svg width="395.52" viewBox="1.46 -37.35 268.83000000000004 37.84" height="55.67163094805667" data-palette-color="#ff851b"><path d="M18.58-26.12L18.58-26.12Q19.19-24.66 19.19-22.91 19.19-21.17 19.07-20.02 18.95-18.87 18.7-17.8L18.7-17.8Q18.19-15.53 17.11-14.16L17.11-14.16Q16.04-20.8 13.62-22.22L13.62-22.22Q12.77-22.71 11.78-22.71 10.79-22.71 10.06-22.24 9.33-21.78 8.81-20.9L8.81-20.9Q7.76-19.14 7.76-16.35 7.76-13.55 8.33-11.54 8.89-9.52 9.8-7.92 10.72-6.32 11.88-5.16 13.04-4 14.21-3.22L14.21-3.22Q16.58-1.71 18.41-1.71L18.41-1.71Q18.31-1.07 17.77-0.46 17.24 0.15 16.6 0.49L16.6 0.49Q14.01 0.49 10.67-1.27L10.67-1.27Q4.44-4.57 2.27-10.89L2.27-10.89Q1.46-13.21 1.46-15.64 1.46-18.07 2.03-19.74 2.59-21.41 3.66-22.61L3.66-22.61Q5.86-25.15 9.77-25.15L9.77-25.15Q11.08-25.15 12.33-24.98L12.33-24.98Q14.67-24.66 15.61-24.66 16.55-24.66 17.29-24.91 18.02-25.17 18.58-26.12ZM34.76-22.71Q32.57-22.71 31.6-20.51 30.64-18.31 30.64-13.11L30.64-13.11Q30.64-1.95 34.76-1.95L34.76-1.95Q36.96-1.95 37.92-4.93 38.89-7.91 38.89-13.11 38.89-18.31 37.92-20.51 36.96-22.71 34.76-22.71L34.76-22.71ZM24.48-14.04Q24.48-25.15 34.76-25.15 45.04-25.15 45.04-14.04L45.04-14.04Q45.04-7.3 42.21-3.37L42.21-3.37Q39.45 0.49 34.76 0.49 30.08 0.49 27.32-3.37L27.32-3.37Q24.48-7.3 24.48-14.04L24.48-14.04ZM65.35 0L65.01-1.93Q62.35 0.49 58.25 0.49L58.25 0.49Q54.49 0.49 52.31-1.68L52.31-1.68Q50.07-3.93 50.07-8.02 50.07-12.11 51.26-15.17 52.46-18.24 54.41-20.31L54.41-20.31Q58.27-24.41 63.89-24.63L63.89-24.63Q63.69-32.15 63.39-33.26 63.08-34.38 62.78-35.02 62.47-35.67 62.08-36.21L62.08-36.21 61.25-37.35 70.16-37.35Q69.48-34.89 69.37-32.57 69.26-30.25 69.21-28.49 69.16-26.73 69.14-24.8L69.14-24.8Q69.06-21.58 69.06-18.4 69.06-15.21 69.07-13.57 69.09-11.94 69.14-10.47L69.14-10.47Q69.26-4.98 69.55-3.94 69.84-2.91 70.15-2.28 70.45-1.66 70.84-1.12L70.84-1.12 71.67 0 65.35 0ZM63.92-8.96Q64.03-12.72 64.03-16 64.03-19.29 63.96-22.27L63.96-22.27Q60.42-21.73 58.3-18.09L58.3-18.09Q56.17-14.48 56.17-8.98L56.17-8.98Q56.17-5.74 56.67-4.44 57.17-3.15 57.87-2.55 58.56-1.95 59.55-1.95 60.54-1.95 61.29-2.36 62.03-2.76 62.59-3.54L62.59-3.54Q63.81-5.2 63.92-8.96ZM92.81-8.3L92.81-8.3Q93.69-7.71 93.69-6.26 93.69-4.81 93.3-3.71 92.91-2.61 91.94-1.66L91.94-1.66Q89.74 0.49 85.25 0.49L85.25 0.49Q80.02 0.49 77.29-3.37L77.29-3.37Q74.87-6.81 74.87-12.67L74.87-12.67Q74.87-18.58 78.14-21.95L78.14-21.95Q81.24-25.15 86.54-25.15L86.54-25.15Q90.23-25.15 92.3-23L92.3-23Q93.94-21.29 93.94-19.06 93.94-16.82 93.07-15.03 92.2-13.23 90.52-11.94L90.52-11.94Q87.05-9.25 80.83-9.11L80.83-9.11Q81.34-4.2 83.9-2.54L83.9-2.54Q84.83-1.95 86.37-1.95 87.91-1.95 89.64-3.56 91.37-5.18 92.81-8.3ZM80.68-12.18L80.68-11.43Q88.4-11.94 88.4-18.9L88.4-18.9Q88.4-21.51 86.83-22.41L86.83-22.41Q86.3-22.71 85.42-22.71 84.54-22.71 83.65-22.17 82.76-21.63 82.1-20.41L82.1-20.41Q80.68-17.75 80.68-12.18L80.68-12.18ZM114.96-26.12L114.96-26.12Q115.57-24.66 115.57-22.91 115.57-21.17 115.44-20.02 115.32-18.87 115.08-17.8L115.08-17.8Q114.57-15.53 113.49-14.16L113.49-14.16Q112.42-20.8 110-22.22L110-22.22Q109.15-22.71 108.16-22.71 107.17-22.71 106.44-22.24 105.7-21.78 105.19-20.9L105.19-20.9Q104.14-19.14 104.14-16.35 104.14-13.55 104.7-11.54 105.26-9.52 106.18-7.92 107.09-6.32 108.25-5.16 109.41-4 110.59-3.22L110.59-3.22Q112.95-1.71 114.78-1.71L114.78-1.71Q114.69-1.07 114.15-0.46 113.61 0.15 112.98 0.49L112.98 0.49Q110.39 0.49 107.05-1.27L107.05-1.27Q100.82-4.57 98.65-10.89L98.65-10.89Q97.84-13.21 97.84-15.64 97.84-18.07 98.4-19.74 98.96-21.41 100.04-22.61L100.04-22.61Q102.24-25.15 106.14-25.15L106.14-25.15Q107.46-25.15 108.71-24.98L108.71-24.98Q111.05-24.66 111.99-24.66 112.93-24.66 113.66-24.91 114.39-25.17 114.96-26.12ZM128.14 0L120.93 0Q122.06-3.86 122.06-13.26L122.06-13.26Q122.06-19.95 120.98-22.39L120.98-22.39Q120.54-23.39 119.42-24.66L119.42-24.66 128.09-24.66Q127.65-23.12 127.38-20.43L127.38-20.43Q129.68-23.32 133.78-24.51L133.78-24.51Q135.53-25.02 136.34-26.12L136.34-26.12Q137.15-24.19 137.15-22.8 137.15-21.41 137-20.23 136.85-19.04 136.56-17.92L136.56-17.92Q135.93-15.5 134.88-14.16L134.88-14.16Q133.97-18.92 132.07-19.73L132.07-19.73Q129.87-20.68 127.77-17.14L127.77-17.14Q127.33-16.41 127.04-15.58L127.04-15.58Q127.01-15.01 127.01-14.43 127.01-13.84 127.01-13.26L127.01-13.26Q127.01-3.86 128.14 0L128.14 0ZM158.58-13.04L158.58-13.04 158.51-8.35Q158.51-3.98 159.31-2.39L159.31-2.39Q159.8-1.44 160.46-0.93L160.46-0.93 161.61 0 154.53 0 153.77-2.83Q151.01 0.49 145.91 0.49L145.91 0.49Q143 0.49 141.22-1.46L141.22-1.46Q139.66-3.22 139.66-5.62 139.66-8.01 140.79-9.79 141.93-11.57 143.78-12.74L143.78-12.74Q147.45-15.01 152.99-15.11L152.99-15.11 152.99-15.38Q152.99-21.31 151.16-22.34L151.16-22.34Q150.5-22.71 149.46-22.71 148.42-22.71 147.4-22.02 146.37-21.34 145.54-20.26L145.54-20.26Q143.88-18.09 143.17-15.14L143.17-15.14Q141-16.43 141-20.09L141-20.09Q141-21.58 141.39-23.44L141.39-23.44Q142.32-23.44 143.15-23.71L143.15-23.71 145.03-24.29Q147.79-25.15 150.42-25.15 153.06-25.15 154.64-24.37 156.21-23.58 157.09-22.05L157.09-22.05Q158.58-19.43 158.58-13.04ZM144.93-5.13Q144.93-3.61 145.63-2.78 146.32-1.95 147.37-1.95 148.42-1.95 149.4-2.5 150.38-3.05 151.16-4L151.16-4Q152.99-6.18 152.99-9.11L152.99-9.11 152.99-12.72Q149.57-12.4 147.35-10.45L147.35-10.45Q144.93-8.35 144.93-5.13L144.93-5.13ZM181.13-26.12L181.13-26.12Q181.75-24.66 181.75-22.91 181.75-21.17 181.62-20.02 181.5-18.87 181.26-17.8L181.26-17.8Q180.74-15.53 179.67-14.16L179.67-14.16Q178.6-20.8 176.18-22.22L176.18-22.22Q175.32-22.71 174.34-22.71 173.35-22.71 172.61-22.24 171.88-21.78 171.37-20.9L171.37-20.9Q170.32-19.14 170.32-16.35 170.32-13.55 170.88-11.54 171.44-9.52 172.36-7.92 173.27-6.32 174.43-5.16 175.59-4 176.76-3.22L176.76-3.22Q179.13-1.71 180.96-1.71L180.96-1.71Q180.87-1.07 180.33-0.46 179.79 0.15 179.16 0.49L179.16 0.49Q176.57 0.49 173.22-1.27L173.22-1.27Q167-4.57 164.83-10.89L164.83-10.89Q164.02-13.21 164.02-15.64 164.02-18.07 164.58-19.74 165.14-21.41 166.22-22.61L166.22-22.61Q168.42-25.15 172.32-25.15L172.32-25.15Q173.64-25.15 174.88-24.98L174.88-24.98Q177.23-24.66 178.17-24.66 179.11-24.66 179.84-24.91 180.57-25.17 181.13-26.12ZM192.9-12.16L192.9-10.35Q192.9-3.27 193.85 0L193.85 0 186.65 0Q187.33-2.37 187.5-5.59L187.5-5.59Q187.87-13.38 187.87-17.68 187.87-21.97 187.85-23.45 187.82-24.93 187.8-26.42L187.8-26.42Q187.65-31.67 187.3-33.09 186.94-34.52 186.63-35.16L186.63-35.16Q186.16-36.18 185.14-37.35L185.14-37.35 194.05-37.35Q193.36-34.89 193.24-32.69L193.24-32.69 193.07-29.15Q192.9-25.12 192.9-23.02 192.9-20.92 192.94-20.19 192.97-19.46 193.12-18.99L193.12-18.99Q193.41-18.02 194.6-18.07 195.78-18.12 196.73-18.57 197.69-19.02 198.3-19.73L198.3-19.73Q199.52-21.09 199.52-22.63 199.52-24.17 199.15-24.66L199.15-24.66 206.21-24.66Q205.91-24.07 205.68-23.47 205.45-22.88 205.18-22.27L205.18-22.27Q203.45-18.41 199.71-16.67L199.71-16.67Q199.96-11.62 203.03-6.54L203.03-6.54Q205.94-1.83 209.43 0L209.43 0 201.25 0Q198.81-1.17 197.29-7.86L197.29-7.86Q196.78-10.13 196.61-12.23 196.44-14.33 196.07-14.98 195.71-15.63 194.76-15.63L194.76-15.63Q192.9-15.63 192.9-12.16L192.9-12.16ZM227.42-8.3L227.42-8.3Q228.3-7.71 228.3-6.26 228.3-4.81 227.91-3.71 227.52-2.61 226.54-1.66L226.54-1.66Q224.34 0.49 219.85 0.49L219.85 0.49Q214.63 0.49 211.89-3.37L211.89-3.37Q209.47-6.81 209.47-12.67L209.47-12.67Q209.47-18.58 212.75-21.95L212.75-21.95Q215.85-25.15 221.14-25.15L221.14-25.15Q224.83-25.15 226.91-23L226.91-23Q228.54-21.29 228.54-19.06 228.54-16.82 227.68-15.03 226.81-13.23 225.12-11.94L225.12-11.94Q221.66-9.25 215.43-9.11L215.43-9.11Q215.94-4.2 218.51-2.54L218.51-2.54Q219.44-1.95 220.97-1.95 222.51-1.95 224.25-3.56 225.98-5.18 227.42-8.3ZM215.29-12.18L215.29-11.43Q223-11.94 223-18.9L223-18.9Q223-21.51 221.44-22.41L221.44-22.41Q220.9-22.71 220.02-22.71 219.14-22.71 218.25-22.17 217.36-21.63 216.7-20.41L216.7-20.41Q215.29-17.75 215.29-12.18L215.29-12.18ZM241.45 0L234.25 0Q235.38-3.86 235.38-13.26L235.38-13.26Q235.38-19.95 234.3-22.39L234.3-22.39Q233.86-23.39 232.74-24.66L232.74-24.66 241.41-24.66Q240.97-23.12 240.7-20.43L240.7-20.43Q242.99-23.32 247.09-24.51L247.09-24.51Q248.85-25.02 249.66-26.12L249.66-26.12Q250.46-24.19 250.46-22.8 250.46-21.41 250.32-20.23 250.17-19.04 249.88-17.92L249.88-17.92Q249.24-15.5 248.19-14.16L248.19-14.16Q247.29-18.92 245.39-19.73L245.39-19.73Q243.19-20.68 241.09-17.14L241.09-17.14Q240.65-16.41 240.36-15.58L240.36-15.58Q240.33-15.01 240.33-14.43 240.33-13.84 240.33-13.26L240.33-13.26Q240.33-3.86 241.45 0L241.45 0ZM269.06-26.1L269.06-26.1Q269.72-24.63 269.72-23.14 269.72-21.66 269.59-20.68 269.45-19.7 269.19-18.8L269.19-18.8Q268.58-16.75 267.45-15.65L267.45-15.65Q266.7-19.43 265.81-20.56 264.91-21.68 264.02-22.07 263.13-22.46 262.13-22.46 261.13-22.46 260.49-22.27 259.86-22.07 259.4-21.7L259.4-21.7Q258.35-20.9 258.35-19.87 258.35-18.85 258.86-18.1 259.37-17.36 260.21-16.71 261.06-16.06 262.13-15.45L262.13-15.45 264.33-14.21Q267.16-12.62 268.21-11.57L268.21-11.57Q270.29-9.5 270.29-7.2L270.29-7.2Q270.29-4.2 268.23-2.15L268.23-2.15Q265.65 0.49 260.47 0.49L260.47 0.49Q255.76 0.49 253.39-1.71L253.39-1.71Q252.71-2.34 252.41-2.98L252.41-2.98Q252.61-4.81 254.05-6.42L254.05-6.42Q255.44-7.98 256.76-8.23L256.76-8.23Q256.66-7.91 256.66-7.28 256.66-6.64 257.03-5.7 257.39-4.76 258.08-3.96L258.08-3.96Q259.62-2.1 261.54-2.1 263.47-2.1 264.38-2.98 265.28-3.86 265.28-4.98 265.28-6.1 264.77-6.86 264.25-7.62 263.41-8.28 262.57-8.94 261.5-9.55L261.5-9.55 259.3-10.79Q256.49-12.45 255.44-13.62L255.44-13.62Q253.34-15.97 253.34-18.73L253.34-18.73Q253.34-21.63 255.78-23.44L255.78-23.44Q258.1-25.15 261.57-25.15L261.57-25.15 265.87-24.85Q267.43-24.85 268.04-25.23 268.65-25.61 269.06-26.1Z" opacity="1" transform="matrix(1,0,0,1,0,0)" fill="#ffffff" class="wordmark-text-0" data-fill-palette-color="primary" id="text-0"></path></svg></g></svg></g><g transform="matrix(1,0,0,1,75.54432,68.8143668957501)"><svg viewBox="0 0 244.43135999999998 22.18236391542678" height="22.18236391542678" width="244.43135999999998"><g transform="matrix(1,0,0,1,0,0)"><svg width="244.43135999999998" viewBox="3.56 -39.84 561.1400000000001 50.92" height="22.18236391542678" data-palette-color="#ff851b"><path d="M43.26-35.99L49.9-35.99 40.19 0.2 32.57 0.2 26.66-26.95 20.36 0.2 12.7 0.2 3.56-35.99 10.21-35.99 16.55-4.93 23.39-35.99 30.03-35.99 36.38-4.93 43.26-35.99ZM69.09-27.83L69.09-27.83Q72.41-27.83 74.95-26.49 77.49-25.15 79.12-22.92 80.76-20.7 81.47-17.8 82.18-14.89 81.74-11.77L81.74-11.77 62.6-11.77Q62.6-10.21 63.18-8.89 63.77-7.57 64.77-6.62 65.77-5.66 67.16-5.13 68.55-4.59 70.16-4.59L70.16-4.59Q70.7-4.59 71.51-4.71 72.31-4.83 73.22-5.15 74.12-5.47 75.02-5.96 75.93-6.45 76.61-7.13L76.61-7.13 78.76-3.86Q77.15-1.86 75-0.83 72.85 0.2 69.53 0.2L69.53 0.2Q66.84 0.2 64.5-0.9 62.16-2 60.5-3.91 58.84-5.81 57.86-8.35 56.88-10.89 56.88-13.82L56.88-13.82Q56.88-16.7 57.86-19.26 58.84-21.83 60.47-23.73 62.11-25.63 64.35-26.73 66.6-27.83 69.09-27.83ZM62.79-16.06L76.27-16.06Q76.27-17.38 75.78-18.65 75.29-19.92 74.44-20.95 73.58-21.97 72.36-22.58 71.14-23.19 69.72-23.24L69.72-23.24Q68.21-23.24 66.94-22.66 65.67-22.07 64.74-21.09 63.82-20.12 63.3-18.77 62.79-17.43 62.79-16.06L62.79-16.06ZM123.97-7.23L128.02-3.66Q126.02-1.71 123.48-0.73 120.94 0.24 118.01 0.24L118.01 0.24Q114.79 0.24 112.08-0.93 109.37-2.1 107.34-4.39 105.31-6.69 104.17-10.16 103.02-13.62 103.02-18.16L103.02-18.16Q103.02-22.71 104.17-26.15 105.31-29.59 107.34-31.88 109.37-34.18 112.1-35.38 114.84-36.57 118.01-36.57L118.01-36.57Q120.94-36.57 123.48-35.6 126.02-34.62 128.02-32.67L128.02-32.67 123.97-29.05Q122.75-30.47 121.26-31.1 119.77-31.74 118.16-31.74L118.16-31.74Q116.35-31.74 114.71-31.05 113.08-30.37 111.78-28.74 110.49-27.1 109.76-24.51 109.03-21.92 108.98-18.16L108.98-18.16Q109.03-14.5 109.73-11.91 110.44-9.33 111.69-7.69 112.93-6.05 114.52-5.3 116.11-4.54 117.86-4.54L117.86-4.54Q119.62-4.54 121.16-5.18 122.7-5.81 123.97-7.23L123.97-7.23ZM151.6-27.73L151.6-21.58Q150.23-21.97 148.28-22.02L148.28-22.02Q146.52-22.02 144.79-21.61 143.06-21.19 142.03-20.21L142.03-20.21 142.03-9.77 142.03-9.67 142.03 0 136.12 0 136.12-27.54 141.4-27.54 142.03-24.71Q142.76-25.44 143.57-26.03 144.37-26.61 145.45-26.98 146.52-27.34 147.99-27.54 149.45-27.73 151.6-27.73L151.6-27.73ZM169.42-27.83L169.42-27.83Q172.74-27.83 175.28-26.49 177.82-25.15 179.46-22.92 181.09-20.7 181.8-17.8 182.51-14.89 182.07-11.77L182.07-11.77 162.93-11.77Q162.93-10.21 163.51-8.89 164.1-7.57 165.1-6.62 166.1-5.66 167.49-5.13 168.88-4.59 170.5-4.59L170.5-4.59Q171.03-4.59 171.84-4.71 172.64-4.83 173.55-5.15 174.45-5.47 175.35-5.96 176.26-6.45 176.94-7.13L176.94-7.13 179.09-3.86Q177.48-1.86 175.33-0.83 173.18 0.2 169.86 0.2L169.86 0.2Q167.18 0.2 164.83-0.9 162.49-2 160.83-3.91 159.17-5.81 158.19-8.35 157.21-10.89 157.21-13.82L157.21-13.82Q157.21-16.7 158.19-19.26 159.17-21.83 160.8-23.73 162.44-25.63 164.68-26.73 166.93-27.83 169.42-27.83ZM163.12-16.06L176.6-16.06Q176.6-17.38 176.11-18.65 175.62-19.92 174.77-20.95 173.91-21.97 172.69-22.58 171.47-23.19 170.06-23.24L170.06-23.24Q168.54-23.24 167.27-22.66 166-22.07 165.08-21.09 164.15-20.12 163.63-18.77 163.12-17.43 163.12-16.06L163.12-16.06ZM210.29-14.89L210.29-8.54 210.29-8.15Q210.29-7.76 210.34-7.01 210.39-6.25 210.53-5.47 210.68-4.69 211-4.05 211.31-3.42 211.85-3.22L211.85-3.22 210.29 0.05Q209.65 0.05 208.94-0.24 208.24-0.54 207.58-1.07 206.92-1.61 206.45-2.27 205.99-2.93 205.75-3.71L205.75-3.71Q205.4-2.88 204.55-2.17 203.7-1.46 202.62-0.9 201.55-0.34 200.3-0.05 199.06 0.24 197.98 0.24L197.98 0.24Q196.32 0.24 194.78-0.2 193.25-0.63 192.07-1.61 190.9-2.59 190.24-4.2 189.58-5.81 189.58-8.15L189.58-8.15Q189.58-10.4 190.54-12.04 191.49-13.67 192.98-14.72 194.47-15.77 196.37-16.28 198.28-16.8 200.23-16.8L200.23-16.8 204.38-16.8Q204.38-19.19 204.14-20.61 203.89-22.02 203.31-22.68 202.72-23.34 201.86-23.51 201.01-23.68 199.84-23.68L199.84-23.68Q198.76-23.68 197.81-23.41 196.86-23.14 196.05-22.78 195.25-22.41 194.64-21.97 194.03-21.53 193.74-21.29L193.74-21.29 191.54-24.66Q192.03-25.2 193-25.76 193.98-26.32 195.25-26.76 196.52-27.2 198.01-27.47 199.5-27.73 201.11-27.73L201.11-27.73Q202.57-27.73 203.96-27.44 205.36-27.15 206.5-26.46 207.65-25.78 208.51-24.63 209.36-23.49 209.7-21.78L209.7-21.78Q210.04-20.07 210.17-18.33 210.29-16.6 210.29-14.89L210.29-14.89ZM204.43-6.59L204.43-13.33 201.3-13.33Q200.33-13.33 199.25-13.13 198.18-12.94 197.25-12.4 196.32-11.87 195.71-10.86 195.1-9.86 195.1-8.3L195.1-8.3Q195.1-5.86 196.2-4.79 197.3-3.71 199.4-3.71L199.4-3.71Q200.86-3.71 202.21-4.49 203.55-5.27 204.43-6.59L204.43-6.59ZM227.47-23.54L227.47-8.35Q227.47-6.69 227.91-5.76 228.35-4.83 229.16-4.35 229.96-3.86 230.96-3.74 231.96-3.61 233.09-3.61L233.09-3.61 233.09 0Q232.45 0.1 231.82 0.15L231.82 0.15Q231.28 0.2 230.52 0.22 229.77 0.24 229.04 0.24L229.04 0.24Q228.3 0.24 227.55 0.2 226.79 0.15 226.25 0.05L226.25 0.05Q224.59-0.24 223.66-1.39 222.74-2.54 222.27-3.93 221.81-5.32 221.69-6.64 221.56-7.96 221.56-8.69L221.56-8.69 221.56-23.54 217.95-23.54 217.95-27.54 221.56-27.54 221.56-35.35 227.47-35.35 227.47-27.54 231.87-27.54 231.87-23.54 227.47-23.54ZM251.54-27.83L251.54-27.83Q254.86-27.83 257.4-26.49 259.94-25.15 261.58-22.92 263.21-20.7 263.92-17.8 264.63-14.89 264.19-11.77L264.19-11.77 245.05-11.77Q245.05-10.21 245.63-8.89 246.22-7.57 247.22-6.62 248.22-5.66 249.61-5.13 251.01-4.59 252.62-4.59L252.62-4.59Q253.15-4.59 253.96-4.71 254.77-4.83 255.67-5.15 256.57-5.47 257.48-5.96 258.38-6.45 259.06-7.13L259.06-7.13 261.21-3.86Q259.6-1.86 257.45-0.83 255.3 0.2 251.98 0.2L251.98 0.2Q249.3 0.2 246.95-0.9 244.61-2 242.95-3.91 241.29-5.81 240.31-8.35 239.34-10.89 239.34-13.82L239.34-13.82Q239.34-16.7 240.31-19.26 241.29-21.83 242.92-23.73 244.56-25.63 246.81-26.73 249.05-27.83 251.54-27.83ZM245.24-16.06L258.72-16.06Q258.72-17.38 258.23-18.65 257.74-19.92 256.89-20.95 256.03-21.97 254.81-22.58 253.59-23.19 252.18-23.24L252.18-23.24Q250.66-23.24 249.39-22.66 248.12-22.07 247.2-21.09 246.27-20.12 245.76-18.77 245.24-17.43 245.24-16.06L245.24-16.06ZM274.88-6.79L274.88-6.79Q276.34-6.79 277.37-5.76 278.4-4.74 278.4-3.32L278.4-3.32Q278.4-3.08 278.35-2.17 278.3-1.27 277.88 0.02 277.47 1.32 276.54 2.83 275.61 4.35 273.81 5.86L273.81 5.86 271.51 5.86Q272.49 4.93 273.12 3.91 273.76 2.88 274.15 2.05L274.15 2.05Q274.59 1.12 274.88 0.2L274.88 0.2Q273.42 0.2 272.41-0.83 271.41-1.86 271.41-3.32L271.41-3.32Q271.41-4.79 272.41-5.79 273.42-6.79 274.88-6.79ZM338.06-35.99L344.7-35.99 334.98 0.2 327.37 0.2 321.46-26.95 315.16 0.2 307.49 0.2 298.36-35.99 305-35.99 311.35-4.93 318.19-35.99 324.83-35.99 331.17-4.93 338.06-35.99ZM363.89-27.83L363.89-27.83Q367.21-27.83 369.75-26.49 372.28-25.15 373.92-22.92 375.56-20.7 376.26-17.8 376.97-14.89 376.53-11.77L376.53-11.77 357.39-11.77Q357.39-10.21 357.98-8.89 358.56-7.57 359.56-6.62 360.57-5.66 361.96-5.13 363.35-4.59 364.96-4.59L364.96-4.59Q365.5-4.59 366.3-4.71 367.11-4.83 368.01-5.15 368.92-5.47 369.82-5.96 370.72-6.45 371.41-7.13L371.41-7.13 373.55-3.86Q371.94-1.86 369.79-0.83 367.65 0.2 364.33 0.2L364.33 0.2Q361.64 0.2 359.3-0.9 356.95-2 355.29-3.91 353.63-5.81 352.66-8.35 351.68-10.89 351.68-13.82L351.68-13.82Q351.68-16.7 352.66-19.26 353.63-21.83 355.27-23.73 356.9-25.63 359.15-26.73 361.4-27.83 363.89-27.83ZM357.59-16.06L371.06-16.06Q371.06-17.38 370.58-18.65 370.09-19.92 369.23-20.95 368.38-21.97 367.16-22.58 365.94-23.19 364.52-23.24L364.52-23.24Q363.01-23.24 361.74-22.66 360.47-22.07 359.54-21.09 358.61-20.12 358.1-18.77 357.59-17.43 357.59-16.06L357.59-16.06ZM427.7-18.99L427.7-18.99Q427.7-14.55 426.75-11.4 425.8-8.25 424.33-6.13 422.87-4 421.03-2.78 419.2-1.56 417.49-0.95 415.79-0.34 414.37-0.17 412.95 0 412.27 0L412.27 0 398.65 0 398.65-35.99 409.49-35.99Q414.03-35.99 417.47-34.55 420.91-33.11 423.18-30.71 425.45-28.32 426.58-25.27 427.7-22.22 427.7-18.99ZM404.51-4.3L410.32-4.3Q416.27-4.3 418.91-8.11 421.55-11.91 421.55-19.14L421.55-19.14Q421.55-21.39 421.01-23.58 420.47-25.78 418.93-27.56 417.4-29.35 414.76-30.44 412.12-31.54 407.92-31.54L407.92-31.54 404.51-31.54 404.51-4.3ZM447.28-27.83L447.28-27.83Q450.6-27.83 453.14-26.49 455.68-25.15 457.31-22.92 458.95-20.7 459.65-17.8 460.36-14.89 459.92-11.77L459.92-11.77 440.78-11.77Q440.78-10.21 441.37-8.89 441.95-7.57 442.96-6.62 443.96-5.66 445.35-5.13 446.74-4.59 448.35-4.59L448.35-4.59Q448.89-4.59 449.69-4.71 450.5-4.83 451.4-5.15 452.31-5.47 453.21-5.96 454.11-6.45 454.8-7.13L454.8-7.13 456.94-3.86Q455.33-1.86 453.19-0.83 451.04 0.2 447.72 0.2L447.72 0.2Q445.03 0.2 442.69-0.9 440.34-2 438.68-3.91 437.02-5.81 436.05-8.35 435.07-10.89 435.07-13.82L435.07-13.82Q435.07-16.7 436.05-19.26 437.02-21.83 438.66-23.73 440.29-25.63 442.54-26.73 444.79-27.83 447.28-27.83ZM440.98-16.06L454.45-16.06Q454.45-17.38 453.97-18.65 453.48-19.92 452.62-20.95 451.77-21.97 450.55-22.58 449.33-23.19 447.91-23.24L447.91-23.24Q446.4-23.24 445.13-22.66 443.86-22.07 442.93-21.09 442-20.12 441.49-18.77 440.98-17.43 440.98-16.06L440.98-16.06ZM467.64-2.2L467.64-2.2 470.13-6.15Q471.1-5.47 472.45-4.88 473.79-4.3 475.84-4.3L475.84-4.3Q478.52-4.3 480.04-5.13 481.55-5.96 481.55-7.57L481.55-7.57Q481.55-8.74 480.67-9.45 479.79-10.16 478.45-10.67 477.11-11.18 475.57-11.65 474.03-12.11 472.71-12.79L472.71-12.79Q470.13-14.16 468.83-15.67 467.54-17.19 467.54-19.68L467.54-19.68Q467.54-21.73 468.39-23.29 469.25-24.85 470.61-25.9 471.98-26.95 473.74-27.49 475.5-28.03 477.3-28.03L477.3-28.03Q479.75-28.03 481.8-27.51 483.85-27 485.75-25.78L485.75-25.78 483.85-21.73Q482.38-22.56 480.67-22.88 478.96-23.19 477.3-23.19L477.3-23.19Q475.5-23.19 474.45-22.39 473.4-21.58 473.4-19.87L473.4-19.87Q473.4-18.55 474.35-17.8 475.3-17.04 476.82-16.46 478.33-15.87 480.04-15.28 481.75-14.7 483.24-13.79 484.73-12.89 485.7-11.52 486.68-10.16 486.68-8.01L486.68-8.01Q486.68-5.91 485.85-4.35 485.02-2.78 483.6-1.76 482.19-0.73 480.33-0.24 478.48 0.24 476.38 0.24L476.38 0.24Q475.11 0.24 474.03 0.17 472.96 0.1 471.93-0.15 470.91-0.39 469.88-0.88 468.86-1.37 467.64-2.2ZM500.25-27.54L500.25 0 494.29 0 494.29-27.54 500.25-27.54ZM500.79-36.33L500.79-36.33Q500.79-34.86 499.76-33.86 498.74-32.86 497.27-32.86L497.27-32.86Q495.81-32.86 494.81-33.89 493.81-34.91 493.81-36.33L493.81-36.33Q493.81-37.79 494.83-38.82 495.86-39.84 497.27-39.84L497.27-39.84Q498.74-39.84 499.76-38.82 500.79-37.79 500.79-36.33ZM510.75 6.93L514.16 3.56Q514.65 4.39 515.41 4.93 516.17 5.47 516.97 5.76 517.78 6.05 518.58 6.18 519.39 6.3 520.02 6.3L520.02 6.3Q523.05 6.3 524.76 4.54 526.47 2.78 526.47-1.46L526.47-1.46 526.47-2.73 526.47-2.83 526.52-3.08Q526.52-3.13 526.49-3.17 526.47-3.22 526.47-3.27L526.47-3.27Q526.32-2.64 525.61-2 524.91-1.37 523.83-0.85 522.76-0.34 521.39-0.05 520.02 0.24 518.56 0.24L518.56 0.24Q515.82 0.24 513.77-0.95 511.72-2.15 510.36-4.15 508.99-6.15 508.35-8.74 507.72-11.33 507.72-14.16L507.72-14.16Q507.72-17.97 508.77-20.56 509.82-23.14 511.45-24.78 513.09-26.42 515.12-27.1 517.14-27.78 519.1-27.78L519.1-27.78Q521.49-27.78 523.47-26.95 525.44-26.12 526.47-24.76L526.47-24.76 527.1-27.54 532.38-27.54 532.33 0Q532.13 2.98 531.13 5.08 530.13 7.18 528.57 8.54 527.01 9.91 524.96 10.5 522.9 11.08 520.56 11.08L520.56 11.08Q517.83 11.08 515.16 10.13 512.5 9.18 510.75 6.93L510.75 6.93ZM526.86-13.96L526.86-13.96Q526.86-15.92 526.37-17.58 525.88-19.24 525.05-20.51 524.22-21.78 523-22.51 521.78-23.24 520.37-23.24L520.37-23.24Q518.9-23.24 517.7-22.49 516.51-21.73 515.68-20.46 514.85-19.19 514.41-17.48 513.97-15.77 513.97-13.87L513.97-13.87Q513.97-11.91 514.43-10.18 514.9-8.45 515.75-7.18 516.61-5.91 517.8-5.15 519-4.39 520.46-4.39L520.46-4.39Q521.98-4.39 523.15-5.15 524.32-5.91 525.13-7.2 525.93-8.5 526.4-10.25 526.86-12.01 526.86-13.96ZM564.7-0.98L564.7 0 558.74 0 558.74-14.99Q558.74-16.65 558.6-18.16 558.45-19.68 557.91-20.85 557.37-22.02 556.45-22.68 555.52-23.34 553.86-23.34L553.86-23.34Q553.32-23.34 552.47-23.19 551.61-23.05 550.71-22.75 549.81-22.46 549-22.02 548.19-21.58 547.8-21L547.8-21 547.8-20.7 547.8-20.61 547.8-9.77 547.8-9.67 547.8 0 541.9 0 541.9-27.54 547.17-27.54 547.8-24.76Q548.39-25.29 549.29-25.85 550.2-26.42 551.27-26.86 552.35-27.29 553.47-27.56 554.59-27.83 555.67-27.83L555.67-27.83Q557.86-27.83 559.38-26.9 560.89-25.98 562.4-24.51L562.4-24.51Q563.23-23.68 563.7-22.58 564.16-21.48 564.38-20.29 564.6-19.09 564.65-17.87 564.7-16.65 564.7-15.48L564.7-15.48 564.7-0.98Z" opacity="1" transform="matrix(1,0,0,1,0,0)" fill="#ffffff" class="slogan-text-1" data-fill-palette-color="secondary" id="text-1"></path></svg></g></svg></g></svg></g></svg></g><g transform="matrix(1,0,0,1,85.78718818715167,0)"><svg viewBox="0 0 223.94562362569664 223.94562362569664" height="223.94562362569664" width="223.94562362569664"><g><svg></svg></g><g id="icon-0"><svg viewBox="0 0 223.94562362569664 223.94562362569664" height="223.94562362569664" width="223.94562362569664"><g><path d="M0 111.973c0-61.841 50.132-111.973 111.973-111.973 61.841 0 111.973 50.132 111.973 111.973 0 61.841-50.132 111.973-111.973 111.973-61.841 0-111.973-50.132-111.973-111.973zM111.973 218.925c59.068 0 106.952-47.884 106.952-106.952 0-59.068-47.884-106.952-106.952-106.952-59.068 0-106.952 47.884-106.952 106.952 0 59.068 47.884 106.952 106.952 106.952z" data-fill-palette-color="accent" fill="#ffffff" stroke="transparent"></path></g><g transform="matrix(1,0,0,1,54.8485290675937,44.98807824695868)"><svg viewBox="0 0 114.24856549050924 133.96946713177928" height="133.96946713177928" width="114.24856549050924"><g><svg xmlns="http://www.w3.org/2000/svg" xmlns:xlink="http://www.w3.org/1999/xlink" version="1.1" x="0" y="0" viewBox="7.468 2 37.72 44.231" enable-background="new 0 0 50 50" xml:space="preserve" height="133.96946713177928" width="114.24856549050924" class="icon-dxe-0" data-fill-palette-color="accent" id="dxe-0"><g fill="#ffbb39" data-fill-palette-color="accent"><path fill="#ffffff" d="M7.468 46.231H35.623C35.635 46.231 35.649 46.224 35.66 46.224 36.043 46.224 36.424 46.08 36.717 45.786L44.657 37.939C44.973 37.666 45.188 37.266 45.188 36.812V2H7.469V46.231zM37.121 41.166V38.312H40.011zM10.466 5H42.188V35.317H34.125V43.231H10.466z" data-fill-palette-color="accent"></path><path fill="#ffffff" d="M24.95 12.392A1.506 1.506 0 0 0 22.828 12.392L15.775 19.447C15.754 19.468 15.724 19.473 15.706 19.492A1.5 1.5 0 0 0 15.268 20.563C15.264 20.951 15.407 21.34 15.706 21.632 15.729 21.653 15.757 21.659 15.775 21.683L22.828 28.732C23.122 29.027 23.506 29.172 23.888 29.172S24.657 29.023 24.951 28.732A1.5 1.5 0 0 0 24.951 26.614L18.898 20.563 24.951 14.512A1.5 1.5 0 0 0 24.95 12.392" data-fill-palette-color="accent"></path><path fill="#ffffff" d="M36.874 21.671C36.896 21.648 36.926 21.642 36.943 21.62 37.24 21.325 37.381 20.939 37.381 20.551A1.48 1.48 0 0 0 36.943 19.48C36.924 19.46 36.89 19.455 36.874 19.432L29.823 12.379A1.505 1.505 0 0 0 27.702 12.379 1.497 1.497 0 0 0 27.702 14.498L33.752 20.551 27.702 26.601A1.5 1.5 0 0 0 28.763 29.16C29.149 29.16 29.529 29.009 29.825 28.722z" data-fill-palette-color="accent"></path></g></svg></g></svg></g></svg></g></svg></g><g></g></svg></g><defs></defs></svg><rect width="286.5315676359785" height="247.2" fill="none" stroke="none" visibility="hidden"></rect></g></svg></g></svg>